Herman Melville's classic novel Moby Dick, is recreated in a world where Captain Ahab and his crew search for a Great White Dragon.

Director:
Ryan Little
Writers:
Herman Melville (novel), Anne K. Black (story), and 2 more credits »
Stars:
Danny Glover, Vinnie Jones and Corey Sevier


Media info:

General
Complete name                    : E:\Age.of.the.Dragons.2011.1080p.Blu-ray rip.mkv.AVC.DTS .5.1.ACB-Team\Age.of.the.Dragons.2011.1080p.Blu-ray rip.mkv.AVC.DTS .5.1.ACB-Team.mkv
Format                           : Matroska
File size                        : 8.81 GiB
Duration                         : 1h 35mn
Overall bit rate                 : 13.2 Mbps
Movie name                       : movie
Encoded date                     : UTC 2011-05-26 19:07:35
Writing application              : mkvmerge v3.2.0 ('Beginnings') built on Feb 12 2010 16:46:17
Writing library                  : libebml v0.7.9 + libmatroska v0.8.1

Video
ID                               : 1
Format                           : AVC
Format/Info                      : Advanced Video Codec
Format profile                   : High@L4.1
Format settings, CABAC           : Yes
Format settings, ReFrames        : 3 frames
Format settings, GOP             : M=4, N=16
Muxing mode                      : Container profile=Unknown@0.0
Codec ID                         : V_MPEG4/ISO/AVC
Duration                         : 1h 35mn
Bit rate mode                    : Variable
Bit rate                         : 11.4 Mbps
Nominal bit rate                 : 12.1 Mbps
Maximum bit rate                 : 35.0 Mbps
Width                            : 1 920 pixels
Height                           : 1 080 pixels
Display aspect ratio             : 16:9
Frame rate                       : 23.976 fps
Color space                      : YUV
Chroma subsampling               : 4:2:0
Bit depth                        : 8 bits
Scan type                        : Progressive
Bits/(Pixel*Frame)               : 0.230
Stream size                      : 7.62 GiB (87%)
Writing library                  : x264 core 115 r1937 aa21558
Encoding settings                : cabac=1 / ref=1 / deblock=1:0:0 / analyse=0x3:0x3 / me=dia / subme=1 / psy=1 / psy_rd=0.00:0.00 / mixed_ref=0 / me_range=16 / chroma_me=1 / trellis=0 / 8x8dct=1 / cqm=0 / deadzone=21,11 / fast_pskip=1 / chroma_qp_offset=0 / threads=3 / sliced_threads=0 / slices=4 / nr=0 / decimate=1 / interlaced=0 / bluray_compat=1 / constrained_intra=0 / bframes=3 / b_pyramid=1 / b_adapt=1 / b_bias=0 / direct=1 / weightb=1 / open_gop=0 / weightp=1 / keyint=24 / keyint_min=1 / scenecut=40 / intra_refresh=0 / rc_lookahead=0 / rc=abr / mbtree=0 / bitrate=12104 / ratetol=1.0 / qcomp=0.60 / qpmin=0 / qpmax=69 / qpstep=4 / vbv_maxrate=35000 / vbv_bufsize=30000 / nal_hrd=vbr / ip_ratio=1.10 / pb_ratio=1.10 / aq=1:1.00

Audio
ID                               : 2
Format                           : DTS
Format/Info                      : Digital Theater Systems
Codec ID                         : A_DTS
Duration                         : 1h 35mn
Bit rate mode                    : Constant
Bit rate                         : 1 510 Kbps
Channel(s)                       : 6 channels
Channel positions                : Front: L C R, Side: L R, LFE
Sampling rate                    : 48.0 KHz
Bit depth                        : 24 bits
Stream size                      : 1.01 GiB (11%)
Language                         : English

Text #1
ID                               : 3
Format                           : VobSub
Muxing mode                      : zlib
Codec ID                         : S_VOBSUB
Codec ID/Info                    : The same subtitle format used on DVDs
Language                         : German

Text #2
ID                               : 4
Format                           : VobSub
Muxing mode                      : zlib
Codec ID                         : S_VOBSUB
Codec ID/Info                    : The same subtitle format used on DVDs
Language                         : Dutch

Menu
00:00:00.000                     : en:00:00:00.000
00:05:28.119                     : en:00:05:28.119
00:13:14.543                     : en:00:13:14.543
00:25:22.646                     : en:00:25:22.646
00:31:09.409                     : en:00:31:09.409
00:38:18.796                     : en:00:38:18.796
00:44:59.113                     : en:00:44:59.113
00:53:12.939                     : en:00:53:12.939
01:03:18.878                     : en:01:03:18.878
01:11:59.356                     : en:01:11:59.356
01:19:23.675                     : en:01:19:23.675
01:30:47.859                     : en:01:30:47.859

 